<?xml version="1.0" encoding="utf-8"?>
<!-- Generator: Adobe Illustrator 24.1.3, SVG Export Plug-In . SVG Version: 6.00 Build 0)  -->
<svg version="1.1" id="Layer_1" xmlns="http://www.w3.org/2000/svg" xmlns:xlink="http://www.w3.org/1999/xlink" x="0px" y="0px"
	 viewBox="0 0 1280 240" style="enable-background:new 0 0 1280 240;" xml:space="preserve">
<style type="text/css">
	.st0{stroke:#1D1D1B;stroke-width:0.9257;stroke-miterlimit:10;}
</style>
<g>
	<path class="st0" d="M4,176.7v-0.3h16.5V53.9H4v-0.3h53.9c26.3,0,38.9,11.1,38.9,29.7c0,6.8-2.4,12.5-7.3,17.2
		c-4.9,4.7-11.1,8.2-18.6,9.7c9.7,1.2,17.3,5.1,22.9,10.9c5.6,5.7,8.4,13,8.4,21.7c0,10.6-3.9,18.9-11.8,24.9
		c-7.8,5.9-18.4,8.9-31.8,8.9H4z M38.3,110.1h22.3c6.1,0,11.5-4.2,14.5-8.6c3.1-4.4,3.8-10.1,3.8-17.2c0-7-0.1-13.5-3.3-18.7
		c-3.1-5.2-8.2-11.8-19.1-11.8H38.3V110.1z M38.3,176.4h15.6c19.4,0,28.1-14.2,28.1-34.4c0-18.4-6.8-31.7-21.5-31.7H38.3V176.4z"/>
	<path class="st0" d="M120.9,176.7v-0.3h16.5V53.9h-16.5v-0.3h51.8c13,0,23.4,3.7,29.2,9.6c5.7,5.8,8.6,12.9,8.6,20.5
		c0,14.8-9.3,23.2-24.4,26.6c8.8,1.4,15.4,6.1,20,10.8c4.6,4.7,7,11.7,7,17.9v17.3c0,15.4,3.4,20.8,13.1,20.8c3.5,0,8-1.3,11-2.2
		l0.1,0.3c-5.7,1.9-11.7,2.8-17.9,2.8c-5.6,0-10.6-1.2-15.8-4.2c-5.1-3-8.3-9.1-8.3-17.3v-20.1c0-6.4-1.1-15.4-4.6-19.7
		c-3.4-4.4-9.2-6.3-16.1-6.3h-19.2v66.1h16.5v0.3H120.9z M155.3,110.1h22c6.2,0,10.4-2.5,12.5-7c2.1-4.5,2.9-9.5,2.9-17.8
		c0-7.8-1.5-14.9-4.7-21.2c-3.1-6.3-9-10.2-16.6-10.2h-16.1V110.1z"/>
	<path class="st0" d="M256,176.7v-0.3h16.5V53.9H256v-0.3h50.8v0.3h-16.5v122.5h16.5v0.3H256z"/>
	<path class="st0" d="M329.7,176.7v-0.3h16.5V53.9h-16.5v-0.3h57.8c10.3,0,24.5,3.2,33.9,10c4.7,3.3,8.8,7.5,12.4,12.3
		c7.2,9.6,11.8,23.8,11.8,39.6s-4.5,29.9-11.8,39.4c-10.6,14.2-27.3,21.7-46.3,21.7H329.7z M364,176.4h23.4
		c11.4,0,20.6-5.2,26.2-13.3c2.8-4,5.1-9,7-14.8c3.7-11.6,4.9-20.2,4.9-32.8s-1.2-21.4-4.9-33c-5.1-17.2-15.5-28.7-33.1-28.7H364
		V176.4z"/>
	<path class="st0" d="M461.1,176.7v-0.3h16.5V53.9h-16.5v-0.3h96.1l0.9,32.3h-0.3c-1-28.7-8.8-32-31.5-32h-30.9v56.2h19.8
		c12.2,0,19.2-3.1,19.2-25.1h0.3v50.2h-0.3c0-19.7-7.1-24.9-19.2-24.9h-19.8v66.1h28.9c22.1,0,39.7,0.1,40.5-38.1h0.3l-0.5,38.4
		H461.1z"/>
	<path class="st0" d="M677.3,75.6c11.2-15.3,29-24.6,46.9-24.4c8.7,0,16.6,1.4,24,4c6.2,2.4,17.7,5.7,18.6-4h0.3v40.4h-0.3
		c0-8.9,0.3-14.3-4.4-22.1c-2.9-4.7-5.7-7.9-10.6-11.8c-5.1-3.9-18.6-6.3-27.6-6.3c-13.6,0-22.1,6.5-28.8,19.6s-10.1,25.1-10.1,44.5
		c0,38.9,11.8,63.2,39,63.2c9,0,22.6-2.3,27.5-6.3c5.1-3.9,7.7-7.3,10.6-12.1c4.7-7.9,4.5-15.4,4.5-21.8h0.3v40.4h-0.3
		c-1-1.5-2-2.5-2.7-3.3c-1.4-1.4-4.2-2.9-7.8-2.9c-3,0-4.7,0.9-8.1,2.1c-7.4,2.7-15.4,4-24,4c-15.1,0-29.6-6.1-40.7-16.6
		c-5.6-5.3-10-12-13.4-20.2c-3.3-8.2-5-17-5-26.7C665.1,100.1,669.8,85.9,677.3,75.6z"/>
	<path class="st0" d="M789.9,53.9v-0.3h57.7v0.3h-23l36.2,66.8l33.4-66.8h-25.8v-0.3h39.5v0.3h-13.4l-33.5,67.2v55.3h16.5v0.3h-50.8
		v-0.3h16.5v-50.5l-39.2-72H789.9z"/>
	<path class="st0" d="M1048.5,176.7v-0.3h16.5V53.9h-16.5v-0.3h50.8v0.3h-16.5v122.5h25.6c28.5,0,39.2-7.1,41.3-46.1h0.3l-1.9,46.3
		H1048.5z"/>
	<path class="st0" d="M1172,176.7v-0.3h16.5V53.9H1172v-0.3h96.1l0.9,32.3h-0.3c-1-28.7-8.8-32-31.5-32h-30.9v56.2h19.8
		c12.2,0,19.2-3.1,19.2-25.1h0.3v50.2h-0.3c0-19.7-7.1-24.9-19.2-24.9h-19.8v66.1h28.9c22.1,0,39.7,0.1,40.5-38.1h0.3l-0.5,38.4
		H1172z"/>
	<path class="st0" d="M1020.4,75.6c-11.2-15.3-29-24.6-46.9-24.4c-8.7,0-16.6,1.4-24,4c-6.2,2.4-17.7,5.7-18.6-4h-0.3v40.4h0.3
		c0-8.9-0.3-14.3,4.4-22.1c2.9-4.7,5.7-7.9,10.6-11.8c5.1-3.9,18.6-6.3,27.6-6.3c13.6,0,22.1,6.5,28.8,19.6s10.1,25.1,10.1,44.5
		c0,38.9-11.8,63.2-39,63.2c-9,0-22.6-2.3-27.5-6.3c-5.1-3.9-7.7-7.3-10.6-12.1c-4.7-7.9-4.5-15.4-4.5-21.8h-0.3v40.4h0.3
		c1-1.5,2-2.5,2.7-3.3c1.4-1.4,4.2-2.9,7.8-2.9c3,0,4.7,0.9,8.1,2.1c7.4,2.7,15.4,4,24,4c15.1,0,29.6-6.1,40.7-16.6
		c5.6-5.3,10-12,13.4-20.2c3.3-8.2,5-17,5-26.7C1032.6,100.1,1027.8,85.9,1020.4,75.6z"/>
</g>
</svg>
